<?xml version="1.0" ?><svg fill="none" height="24" viewBox="0 0 24 24" width="24" xmlns="http://www.w3.org/2000/svg"><path clip-rule="evenodd" d="M3 5C3 3.89543 3.89543 3 5 3H19C20.1046 3 21 3.89543 21 5V19C21 20.1046 20.1046 21 19 21H5C3.89543 21 3 20.1046 3 19V5ZM9.03819 7.61302C9.36892 7.44083 9.76799 7.46694 10.0735 7.68077L15.0735 11.1808C15.3408 11.3679 15.5 11.6737 15.5 12C15.5 12.3263 15.3408 12.6321 15.0735 12.8192L10.0735 16.3192C9.76799 16.5331 9.36892 16.5592 9.03819 16.387C8.70746 16.2148 8.5 15.8729 8.5 15.5V8.5C8.5 8.12713 8.70746 7.78522 9.03819 7.61302Z" fill="black" fill-rule="evenodd"/></svg>